<svg width="170" height="40" viewBox="0 0 170 40" fill="none" xmlns="http://www.w3.org/2000/svg">
<path d="M33.6818 14.1818C34.6608 14.1818 35.4545 13.3881 35.4545 12.409V5.31814C35.4545 4.33909 34.6608 3.54541 33.6818 3.54541H26.5909C25.6118 3.54541 24.8181 4.33909 24.8181 5.31814V7.09086H14.1818V5.31814C14.1818 4.33909 13.3881 3.54541 12.409 3.54541H5.31814C4.33909 3.54541 3.54541 4.33909 3.54541 5.31814V12.409C3.54541 13.3881 4.33909 14.1818 5.31814 14.1818H7.09086V24.8181H5.31814C4.33909 24.8181 3.54541 25.6118 3.54541 26.5909V33.6818C3.54541 34.6608 4.33909 35.4545 5.31814 35.4545H12.409C13.3881 35.4545 14.1818 34.6608 14.1818 33.6818V31.909H24.8181V33.6818C24.8181 34.6608 25.6118 35.4545 26.5909 35.4545H33.6818C34.6608 35.4545 35.4545 34.6608 35.4545 33.6818V26.5909C35.4545 25.6118 34.6608 24.8181 33.6818 24.8181H31.909V14.1818H33.6818Z" fill="black"/>
<path d="M28.3638 7.09082H31.9092V10.6363H28.3638V7.09082Z" fill="white"/>
<path d="M7.09082 7.09082H10.6363V10.6363H7.09082V7.09082Z" fill="white"/>
<path d="M10.6363 31.909H7.09082V28.3635H10.6363V31.909Z" fill="white"/>
<path d="M31.9092 31.909H28.3638V28.3635H31.9092V31.909Z" fill="white"/>
<path d="M28.3635 24.8183H26.5908C25.6117 24.8183 24.818 25.612 24.818 26.591V28.3637H14.1817V26.591C14.1817 25.612 13.388 24.8183 12.409 24.8183H10.6362V14.1819H12.409C13.388 14.1819 14.1817 13.3883 14.1817 12.4092V10.6365H24.818V12.4092C24.818 13.3883 25.6117 14.1819 26.5908 14.1819H28.3635V24.8183Z" fill="white"/>
<mask id="path-7-outside-1_257_44" maskUnits="userSpaceOnUse" x="0.54541" y="0.54541" width="38" height="38" fill="black">
<rect fill="white" x="0.54541" y="0.54541" width="38" height="38"/>
<path d="M33.6818 14.1818C34.6608 14.1818 35.4545 13.3881 35.4545 12.409V5.31814C35.4545 4.33909 34.6608 3.54541 33.6818 3.54541H26.5909C25.6118 3.54541 24.8181 4.33909 24.8181 5.31814V7.09086H14.1818V5.31814C14.1818 4.33909 13.3881 3.54541 12.409 3.54541H5.31814C4.33909 3.54541 3.54541 4.33909 3.54541 5.31814V12.409C3.54541 13.3881 4.33909 14.1818 5.31814 14.1818H7.09086V24.8181H5.31814C4.33909 24.8181 3.54541 25.6118 3.54541 26.5909V33.6818C3.54541 34.6608 4.33909 35.4545 5.31814 35.4545H12.409C13.3881 35.4545 14.1818 34.6608 14.1818 33.6818V31.909H24.8181V33.6818C24.8181 34.6608 25.6118 35.4545 26.5909 35.4545H33.6818C34.6608 35.4545 35.4545 34.6608 35.4545 33.6818V26.5909C35.4545 25.6118 34.6608 24.8181 33.6818 24.8181H31.909V14.1818H33.6818Z"/>
</mask>
<path d="M24.8181 7.09086V10.0909H27.8181V7.09086H24.8181ZM14.1818 7.09086H11.1818V10.0909H14.1818V7.09086ZM7.09086 14.1818H10.0909V11.1818H7.09086V14.1818ZM7.09086 24.8181V27.8181H10.0909V24.8181H7.09086ZM14.1818 31.909V28.909H11.1818V31.909H14.1818ZM24.8181 31.909H27.8181V28.909H24.8181V31.909ZM31.909 24.8181H28.909V27.8181H31.909V24.8181ZM31.909 14.1818V11.1818H28.909V14.1818H31.909ZM33.6818 17.1818C36.3177 17.1818 38.4545 15.045 38.4545 12.409H32.4545C32.4545 11.7312 33.004 11.1818 33.6818 11.1818V17.1818ZM38.4545 12.409V5.31814H32.4545V12.409H38.4545ZM38.4545 5.31814C38.4545 2.68223 36.3177 0.54541 33.6818 0.54541V6.54541C33.004 6.54541 32.4545 5.99594 32.4545 5.31814H38.4545ZM33.6818 0.54541H26.5909V6.54541H33.6818V0.54541ZM26.5909 0.54541C23.955 0.54541 21.8181 2.68223 21.8181 5.31814H27.8181C27.8181 5.99594 27.2687 6.54541 26.5909 6.54541V0.54541ZM21.8181 5.31814V7.09086H27.8181V5.31814H21.8181ZM24.8181 4.09086H14.1818V10.0909H24.8181V4.09086ZM17.1818 7.09086V5.31814H11.1818V7.09086H17.1818ZM17.1818 5.31814C17.1818 2.68223 15.045 0.54541 12.409 0.54541V6.54541C11.7312 6.54541 11.1818 5.99594 11.1818 5.31814H17.1818ZM12.409 0.54541H5.31814V6.54541H12.409V0.54541ZM5.31814 0.54541C2.68223 0.54541 0.54541 2.68223 0.54541 5.31814H6.54541C6.54541 5.99594 5.99594 6.54541 5.31814 6.54541V0.54541ZM0.54541 5.31814V12.409H6.54541V5.31814H0.54541ZM0.54541 12.409C0.54541 15.045 2.68223 17.1818 5.31814 17.1818V11.1818C5.99594 11.1818 6.54541 11.7312 6.54541 12.409H0.54541ZM5.31814 17.1818H7.09086V11.1818H5.31814V17.1818ZM4.09086 14.1818V24.8181H10.0909V14.1818H4.09086ZM7.09086 21.8181H5.31814V27.8181H7.09086V21.8181ZM5.31814 21.8181C2.68223 21.8181 0.54541 23.955 0.54541 26.5909H6.54541C6.54541 27.2687 5.99594 27.8181 5.31814 27.8181V21.8181ZM0.54541 26.5909V33.6818H6.54541V26.5909H0.54541ZM0.54541 33.6818C0.54541 36.3177 2.68223 38.4545 5.31814 38.4545V32.4545C5.99594 32.4545 6.54541 33.004 6.54541 33.6818H0.54541ZM5.31814 38.4545H12.409V32.4545H5.31814V38.4545ZM12.409 38.4545C15.045 38.4545 17.1818 36.3177 17.1818 33.6818H11.1818C11.1818 33.004 11.7312 32.4545 12.409 32.4545V38.4545ZM17.1818 33.6818V31.909H11.1818V33.6818H17.1818ZM14.1818 34.909H24.8181V28.909H14.1818V34.909ZM21.8181 31.909V33.6818H27.8181V31.909H21.8181ZM21.8181 33.6818C21.8181 36.3177 23.955 38.4545 26.5909 38.4545V32.4545C27.2687 32.4545 27.8181 33.004 27.8181 33.6818H21.8181ZM26.5909 38.4545H33.6818V32.4545H26.5909V38.4545ZM33.6818 38.4545C36.3177 38.4545 38.4545 36.3177 38.4545 33.6818H32.4545C32.4545 33.004 33.004 32.4545 33.6818 32.4545V38.4545ZM38.4545 33.6818V26.5909H32.4545V33.6818H38.4545ZM38.4545 26.5909C38.4545 23.955 36.3177 21.8181 33.6818 21.8181V27.8181C33.004 27.8181 32.4545 27.2687 32.4545 26.5909H38.4545ZM33.6818 21.8181H31.909V27.8181H33.6818V21.8181ZM34.909 24.8181V14.1818H28.909V24.8181H34.909ZM31.909 17.1818H33.6818V11.1818H31.909V17.1818Z" fill="url(#paint0_linear_257_44)" mask="url(#path-7-outside-1_257_44)"/>
<path d="M49.3857 15.9998H52.2837V11.0318H53.5437L56.6217 15.9998H59.7177L56.3157 10.5278C57.8277 10.0778 58.9617 9.05183 58.9617 7.10782V7.03582C58.9617 4.37182 57.0357 3.12982 53.9937 3.12982H49.3857V15.9998ZM52.2837 9.05183V5.36182H53.9217C55.3257 5.36182 56.1177 5.81182 56.1177 7.12582V7.19782C56.1177 8.43982 55.3797 9.05183 53.9217 9.05183H52.2837Z" fill="white"/>
<path d="M64.6919 16.1978C67.2659 16.1978 68.8859 15.0638 69.1919 13.0298H66.7259C66.5639 13.8218 65.9699 14.3438 64.7639 14.3438C63.3419 14.3438 62.4959 13.4438 62.4239 11.8778H69.2099V11.1578C69.2099 7.79183 67.0499 6.36982 64.6199 6.36982C61.8839 6.36982 59.7779 8.29583 59.7779 11.2658V11.4098C59.7779 14.4158 61.8479 16.1978 64.6919 16.1978ZM62.4599 10.2758C62.6579 8.94383 63.4499 8.16982 64.6199 8.16982C65.8619 8.16982 66.5819 8.85383 66.6719 10.2758H62.4599Z" fill="white"/>
<path d="M70.4504 15.9998H73.0424V2.31982H70.4504V15.9998Z" fill="white"/>
<path d="M78.0153 16.1978C79.5633 16.1978 80.5173 15.4778 81.0033 14.5238V15.9998H83.5953V6.58582H81.0033V12.1118C81.0033 13.4978 80.1393 14.1818 79.0413 14.1818C77.9253 14.1818 77.4033 13.5698 77.4033 12.2918V6.58582H74.8113V12.6518C74.8113 15.1178 76.1793 16.1978 78.0153 16.1978Z" fill="white"/>
<path d="M85.3648 15.9998H87.9748V10.4378C87.9748 9.15982 88.7848 8.51183 89.7928 8.51183C90.7108 8.51183 91.2688 9.05182 91.2688 10.2578V15.9998H93.8608V10.4378C93.8608 9.15982 94.6708 8.51183 95.6788 8.51183C96.6148 8.51183 97.1548 9.05182 97.1548 10.2578V15.9998H99.7468V9.96983C99.7468 7.46782 98.3968 6.36982 96.6508 6.36982C95.4628 6.36982 94.2388 6.87382 93.4828 8.00782C93.0328 6.89182 92.0968 6.36982 90.8548 6.36982C89.4508 6.36982 88.4428 7.14383 87.9748 8.02583V6.58582H85.3648V15.9998Z" fill="white"/>
<path d="M105.774 16.1978C108.348 16.1978 109.968 15.0638 110.274 13.0298H107.808C107.646 13.8218 107.052 14.3438 105.846 14.3438C104.424 14.3438 103.578 13.4438 103.506 11.8778H110.292V11.1578C110.292 7.79183 108.132 6.36982 105.702 6.36982C102.966 6.36982 100.86 8.29583 100.86 11.2658V11.4098C100.86 14.4158 102.93 16.1978 105.774 16.1978ZM103.542 10.2758C103.74 8.94383 104.532 8.16982 105.702 8.16982C106.944 8.16982 107.664 8.85383 107.754 10.2758H103.542Z" fill="white"/>
<path d="M52.3017 33.7318V25.3978H53.4537C56.1717 25.3978 57.3057 26.8198 57.3057 29.4658V29.6098C57.3057 32.2738 56.0817 33.7318 53.4897 33.7318H52.3017ZM49.3857 35.9998H53.5797C58.0977 35.9998 60.3477 33.4258 60.3477 29.5738V29.4298C60.3477 25.5778 58.1157 23.1298 53.5977 23.1298H49.3857V35.9998Z" fill="#C5C2BE"/>
<path d="M66.0103 36.1978C68.5843 36.1978 70.2043 35.0638 70.5103 33.0298H68.0443C67.8823 33.8218 67.2883 34.3438 66.0823 34.3438C64.6603 34.3438 63.8143 33.4438 63.7423 31.8778H70.5283V31.1578C70.5283 27.7918 68.3683 26.3698 65.9383 26.3698C63.2023 26.3698 61.0963 28.2958 61.0963 31.2658V31.4098C61.0963 34.4158 63.1663 36.1978 66.0103 36.1978ZM63.7783 30.2758C63.9763 28.9438 64.7683 28.1698 65.9383 28.1698C67.1803 28.1698 67.9003 28.8538 67.9903 30.2758H63.7783Z" fill="#C5C2BE"/>
<path d="M75.2046 36.1978C77.6886 36.1978 79.1646 35.1358 79.1646 33.1018C79.1646 31.0858 77.8686 30.4918 75.5106 30.1498C74.1426 29.9518 73.6926 29.7178 73.6926 29.1238C73.6926 28.5478 74.1786 28.1518 75.0246 28.1518C75.9246 28.1518 76.3566 28.5118 76.5006 29.2858H78.8946C78.6606 27.1258 77.0946 26.3698 75.0066 26.3698C73.0806 26.3698 71.2806 27.3418 71.2806 29.3038C71.2806 31.1398 72.2526 31.8598 74.7546 32.2378C76.1046 32.4358 76.6626 32.7058 76.6626 33.3538C76.6626 34.0018 76.1946 34.3798 75.1866 34.3798C74.0526 34.3798 73.6386 33.8938 73.5306 33.0478H71.1006C71.1906 35.0818 72.6666 36.1978 75.2046 36.1978Z" fill="#C5C2BE"/>
<path d="M80.3518 35.9998H82.9438V26.5858H80.3518V35.9998ZM81.6298 25.3078C82.4758 25.3078 83.1238 24.6958 83.1238 23.8858C83.1238 23.0758 82.4758 22.4638 81.6298 22.4638C80.8018 22.4638 80.1538 23.0758 80.1538 23.8858C80.1538 24.6958 80.8018 25.3078 81.6298 25.3078Z" fill="#C5C2BE"/>
<path d="M88.9783 39.4738C92.0743 39.4738 93.9283 38.0518 93.9463 35.2618V26.5858H91.3543V27.9898C90.8143 27.0358 89.8963 26.3698 88.3663 26.3698C86.0263 26.3698 84.2263 28.2598 84.2263 30.9598V31.0858C84.2263 33.8758 86.0443 35.5858 88.3303 35.5858C89.7163 35.5858 90.8323 34.7578 91.3543 33.8398V35.2618C91.3543 36.7378 90.5623 37.5658 88.9783 37.5658C87.6463 37.5658 87.0523 37.0258 86.8903 36.1978H84.2983C84.5503 38.1418 85.9363 39.4738 88.9783 39.4738ZM89.1043 33.6238C87.8083 33.6238 86.8903 32.6518 86.8903 31.0858V30.9418C86.8903 29.3938 87.7003 28.3498 89.1583 28.3498C90.5803 28.3498 91.4263 29.3218 91.4263 30.9238V31.0498C91.4263 32.6518 90.4723 33.6238 89.1043 33.6238Z" fill="#C5C2BE"/>
<path d="M95.7056 35.9998H98.3156V30.5638C98.3156 29.1778 99.1616 28.4938 100.278 28.4938C101.43 28.4938 101.934 29.1058 101.934 30.3838V35.9998H104.544V30.0058C104.544 27.4858 103.23 26.3698 101.376 26.3698C99.8096 26.3698 98.7836 27.1438 98.3156 28.0798V26.5858H95.7056V35.9998Z" fill="#C5C2BE"/>
<path d="M109.924 35.9998H118.078V33.7138H112.84V23.1298H109.924V35.9998Z" fill="#C5C2BE"/>
<path d="M123.385 36.1978C125.959 36.1978 127.579 35.0638 127.885 33.0298H125.419C125.257 33.8218 124.663 34.3438 123.457 34.3438C122.035 34.3438 121.189 33.4438 121.117 31.8778H127.903V31.1578C127.903 27.7918 125.743 26.3698 123.313 26.3698C120.577 26.3698 118.471 28.2958 118.471 31.2658V31.4098C118.471 34.4158 120.541 36.1978 123.385 36.1978ZM121.153 30.2758C121.351 28.9438 122.143 28.1698 123.313 28.1698C124.555 28.1698 125.275 28.8538 125.365 30.2758H121.153Z" fill="#C5C2BE"/>
<path d="M131.697 36.1978C133.173 36.1978 134.001 35.6218 134.541 34.8658V35.9998H137.079V29.8618C137.079 27.3058 135.441 26.3698 133.137 26.3698C130.833 26.3698 129.069 27.3598 128.907 29.5918H131.373C131.481 28.7818 131.949 28.2598 132.975 28.2598C134.163 28.2598 134.505 28.8718 134.505 29.9878V30.3658H133.443C130.563 30.3658 128.547 31.1938 128.547 33.3898C128.547 35.3698 129.987 36.1978 131.697 36.1978ZM132.471 34.3798C131.517 34.3798 131.103 33.9298 131.103 33.2458C131.103 32.2378 131.985 31.9138 133.497 31.9138H134.505V32.7058C134.505 33.7498 133.623 34.3798 132.471 34.3798Z" fill="#C5C2BE"/>
<path d="M142.955 39.4738C146.051 39.4738 147.905 38.0518 147.923 35.2618V26.5858H145.331V27.9898C144.791 27.0358 143.873 26.3698 142.343 26.3698C140.003 26.3698 138.203 28.2598 138.203 30.9598V31.0858C138.203 33.8758 140.021 35.5858 142.307 35.5858C143.693 35.5858 144.809 34.7578 145.331 33.8398V35.2618C145.331 36.7378 144.539 37.5658 142.955 37.5658C141.623 37.5658 141.029 37.0258 140.867 36.1978H138.275C138.527 38.1418 139.913 39.4738 142.955 39.4738ZM143.081 33.6238C141.785 33.6238 140.867 32.6518 140.867 31.0858V30.9418C140.867 29.3938 141.677 28.3498 143.135 28.3498C144.557 28.3498 145.403 29.3218 145.403 30.9238V31.0498C145.403 32.6518 144.449 33.6238 143.081 33.6238Z" fill="#C5C2BE"/>
<path d="M152.814 36.1978C154.362 36.1978 155.316 35.4778 155.802 34.5238V35.9998H158.394V26.5858H155.802V32.1118C155.802 33.4978 154.938 34.1818 153.84 34.1818C152.724 34.1818 152.202 33.5698 152.202 32.2918V26.5858H149.61V32.6518C149.61 35.1178 150.978 36.1978 152.814 36.1978Z" fill="#C5C2BE"/>
<path d="M164.502 36.1978C167.076 36.1978 168.696 35.0638 169.002 33.0298H166.536C166.374 33.8218 165.78 34.3438 164.574 34.3438C163.152 34.3438 162.306 33.4438 162.234 31.8778H169.02V31.1578C169.02 27.7918 166.86 26.3698 164.43 26.3698C161.694 26.3698 159.588 28.2958 159.588 31.2658V31.4098C159.588 34.4158 161.658 36.1978 164.502 36.1978ZM162.27 30.2758C162.468 28.9438 163.26 28.1698 164.43 28.1698C165.672 28.1698 166.392 28.8538 166.482 30.2758H162.27Z" fill="#C5C2BE"/>
<defs>
<linearGradient id="paint0_linear_257_44" x1="3.54541" y1="3.54541" x2="35.8537" y2="7.07893" gradientUnits="userSpaceOnUse">
<stop stop-color="#FF7448"/>
<stop offset="0.5" stop-color="#FF4848"/>
<stop offset="1" stop-color="#6248FF"/>
</linearGradient>
</defs>
</svg>
