<svg width="54" height="35" viewBox="0 0 54 35" fill="none" xmlns="http://www.w3.org/2000/svg">
<g clip-path="url(#clip0_1_3693)">
<path d="M47.1359 13H20.3382C16.8369 13 13.9985 15.8383 13.9985 19.3396V27.7895C13.9985 31.2908 16.8369 34.1291 20.3382 34.1291H47.1359C50.6372 34.1291 53.4755 31.2908 53.4755 27.7895V19.3396C53.4755 15.8383 50.6372 13 47.1359 13Z" fill="#FF7448"/>
<path d="M22.5961 24.0716V26.5314H26.7803C26.8648 26.5314 26.9071 26.5736 26.9071 26.6582V27.8754C26.9071 27.9599 26.8648 28.0022 26.7803 28.0022H21.1253C21.0408 28.0022 20.9985 27.9599 20.9985 27.8754V19.2535C20.9985 19.169 21.0408 19.1267 21.1253 19.1267H26.5901C26.6746 19.1267 26.7169 19.169 26.7169 19.2535V20.4707C26.7169 20.5552 26.6746 20.5975 26.5901 20.5975H22.5961V22.6008H26.2097C26.2942 22.6008 26.3365 22.6431 26.3365 22.7276V23.9448C26.3365 24.0293 26.2942 24.0716 26.2097 24.0716H22.5961Z" fill="white"/>
<path d="M28.1182 27.8754V19.2535C28.1182 19.169 28.1605 19.1267 28.245 19.1267H31.7065C32.5264 19.1267 33.1815 19.3422 33.6718 19.7733C34.1705 20.196 34.4198 20.7877 34.4198 21.5484C34.4198 22.081 34.2635 22.5543 33.9507 22.9685C33.6379 23.3742 33.2491 23.6743 32.7842 23.8687L34.6734 27.8754C34.6819 27.8923 34.6861 27.9092 34.6861 27.9261C34.6861 27.9768 34.6481 28.0022 34.572 28.0022H33.1139C33.0462 28.0022 32.9871 27.9599 32.9364 27.8754L31.0345 23.9702H29.7158V27.8754C29.7158 27.9599 29.6736 28.0022 29.589 28.0022H28.245C28.1605 28.0022 28.1182 27.9599 28.1182 27.8754ZM29.7158 20.5975V22.4994H31.7699C32.0911 22.4994 32.3447 22.4148 32.5306 22.2458C32.725 22.0767 32.8222 21.8443 32.8222 21.5484C32.8222 21.2526 32.725 21.0201 32.5306 20.8511C32.3447 20.682 32.0911 20.5975 31.7699 20.5975H29.7158Z" fill="white"/>
<path d="M35.6198 27.8754V19.2535C35.6198 19.169 35.662 19.1267 35.7465 19.1267H37.0905C37.175 19.1267 37.2174 19.169 37.2174 19.2535V27.8754C37.2174 27.9599 37.175 28.0022 37.0905 28.0022H35.7465C35.662 28.0022 35.6198 27.9599 35.6198 27.8754Z" fill="white"/>
<path d="M45.0555 24.8198H46.3361C46.429 24.8198 46.4755 24.862 46.4755 24.9466C46.3572 25.9187 45.9303 26.6921 45.1949 27.2669C44.4595 27.8417 43.5635 28.1291 42.5069 28.1291C41.9913 28.1291 41.4926 28.0403 41.0108 27.8628C40.529 27.6768 40.0894 27.4064 39.6921 27.0513C39.2948 26.6963 38.9736 26.2187 38.7285 25.6186C38.4918 25.0184 38.3735 24.3337 38.3735 23.5645C38.3735 22.7953 38.4918 22.1106 38.7285 21.5105C38.9736 20.9103 39.2948 20.4328 39.6921 20.0777C40.0894 19.7227 40.529 19.4565 41.0108 19.2789C41.4926 19.093 41.9913 19 42.5069 19C43.5635 19 44.4595 19.2874 45.1949 19.8622C45.9303 20.437 46.3572 21.2104 46.4755 22.1825C46.4755 22.267 46.429 22.3093 46.3361 22.3093H45.0555C44.9794 22.3093 44.9287 22.267 44.9033 22.1825C44.5736 21.0414 43.7748 20.4708 42.5069 20.4708C41.8391 20.4708 41.2559 20.7413 40.7572 21.2823C40.2669 21.8232 40.0218 22.584 40.0218 23.5645C40.0218 24.5451 40.2669 25.3058 40.7572 25.8468C41.2559 26.3878 41.8391 26.6583 42.5069 26.6583C43.7748 26.6583 44.5736 26.0877 44.9033 24.9466C44.9287 24.862 44.9794 24.8198 45.0555 24.8198Z" fill="white"/>
<path d="M1.35936 0.163418L1.12835 0.394212C1.0479 0.477594 1.00326 0.589088 1.00396 0.704897C0.994774 0.75478 0.994774 0.805918 1.00396 0.855801L6.33499 15.7242C6.40256 15.9129 6.58822 16.0329 6.78813 16.0172H6.93029C7.10478 16.0171 7.26374 15.917 7.33901 15.7598L10.351 9.37742L16.7394 6.36822C16.8968 6.29302 16.997 6.13421 16.9971 5.95989V5.81787C16.997 5.631 16.8798 5.4642 16.7039 5.40066L1.82138 0.0391456C1.65629 -0.0129028 1.47598 0.0355973 1.35936 0.163418Z" fill="#FF7448"/>
</g>
<defs>
<clipPath id="clip0_1_3693">
<rect width="54" height="35" fill="white"/>
</clipPath>
</defs>
</svg>
