<svg width="60" height="35" viewBox="0 0 60 35" fill="none" xmlns="http://www.w3.org/2000/svg">
<g clip-path="url(#clip0_1_3708)">
<path d="M53.0483 13H20.3367C16.8354 13 13.9971 15.8383 13.9971 19.3396V27.7895C13.9971 31.2908 16.8354 34.1291 20.3367 34.1291H53.0483C56.5496 34.1291 59.388 31.2908 59.388 27.7895V19.3396C59.388 15.8383 56.5496 13 53.0483 13Z" fill="#487BFF"/>
<path d="M27.0324 19.2535V24.5407C27.0324 25.7157 26.7619 26.6075 26.2209 27.2161C25.6884 27.8247 24.9445 28.129 23.9894 28.129C23.0765 28.129 22.3495 27.8416 21.8085 27.2668C21.2676 26.692 20.9971 25.9777 20.9971 25.124C20.9971 25.0395 21.0393 24.9972 21.1239 24.9972H22.4679C22.5524 24.9972 22.5947 25.0395 22.5947 25.124C22.5947 25.6227 22.7257 26.0031 22.9877 26.2651C23.2498 26.5272 23.5836 26.6582 23.9894 26.6582C24.4965 26.6582 24.8642 26.4933 25.0925 26.1637C25.3207 25.8256 25.4348 25.2888 25.4348 24.5534V19.2535C25.4348 19.169 25.4771 19.1267 25.5616 19.1267H26.9056C26.9901 19.1267 27.0324 19.169 27.0324 19.2535Z" fill="white"/>
<path d="M34.0454 27.8501C33.5298 28.0361 32.993 28.1291 32.4352 28.1291C31.8773 28.1291 31.3405 28.0361 30.8249 27.8501C30.3093 27.6557 29.8401 27.3768 29.4175 27.0133C29.0033 26.6498 28.6694 26.1722 28.4158 25.5805C28.1707 24.9804 28.0481 24.3084 28.0481 23.5645C28.0481 22.8207 28.1707 22.1529 28.4158 21.5612C28.6694 20.9611 29.0033 20.4792 29.4175 20.1158C29.8401 19.7523 30.3093 19.4776 30.8249 19.2916C31.3405 19.0972 31.8773 19 32.4352 19C32.993 19 33.5298 19.0972 34.0454 19.2916C34.561 19.4776 35.0259 19.7523 35.4401 20.1158C35.8628 20.4792 36.1967 20.9611 36.4418 21.5612C36.6954 22.1529 36.8222 22.8207 36.8222 23.5645C36.8222 24.3084 36.6954 24.9804 36.4418 25.5805C36.1967 26.1722 35.8628 26.6498 35.4401 27.0133C35.0259 27.3768 34.561 27.6557 34.0454 27.8501ZM30.4952 25.8595C31.0278 26.392 31.6744 26.6583 32.4352 26.6583C33.1959 26.6583 33.8426 26.392 34.3751 25.8595C34.9076 25.3185 35.1739 24.5535 35.1739 23.5645C35.1739 22.5756 34.9076 21.8148 34.3751 21.2823C33.8426 20.7413 33.1959 20.4708 32.4352 20.4708C31.6744 20.4708 31.0278 20.7413 30.4952 21.2823C29.9627 21.8148 29.6964 22.5756 29.6964 23.5645C29.6964 24.5535 29.9627 25.3185 30.4952 25.8595Z" fill="white"/>
<path d="M37.8058 21.5232C37.8058 20.7455 38.1101 20.1327 38.7187 19.6847C39.3273 19.2282 40.0585 19 40.9122 19C41.8589 19 42.6366 19.262 43.2452 19.7861C43.8538 20.3102 44.1666 20.9315 44.1835 21.65C44.1835 21.7345 44.1412 21.7768 44.0567 21.7768H42.7127C42.6366 21.7768 42.5943 21.7345 42.5859 21.65C42.5267 21.2696 42.3408 20.978 42.028 20.7751C41.7237 20.5722 41.3433 20.4708 40.8869 20.4708C40.4558 20.4708 40.1008 20.5553 39.8218 20.7244C39.5429 20.8934 39.4034 21.1343 39.4034 21.4471C39.4034 21.7852 39.5809 22.0557 39.9359 22.2586C40.2994 22.4614 40.8235 22.6601 41.5082 22.8545C41.9308 22.9728 42.2985 23.0954 42.6113 23.2222C42.9325 23.349 43.241 23.5096 43.5368 23.704C43.8327 23.8984 44.0567 24.1309 44.2088 24.4014C44.3694 24.6719 44.4497 24.9762 44.4497 25.3143C44.4497 26.2018 44.1412 26.895 43.5242 27.3937C42.9071 27.8839 42.0745 28.1291 41.0263 28.1291C40.0458 28.1291 39.2301 27.8417 38.5792 27.2669C37.9284 26.6836 37.5987 25.9736 37.5903 25.1368C37.5903 25.0522 37.6325 25.01 37.7171 25.01H39.0484C39.1245 25.01 39.1667 25.0522 39.1752 25.1368C39.2174 25.6355 39.4076 26.0159 39.7457 26.2779C40.0923 26.5315 40.5445 26.6583 41.1024 26.6583C41.6349 26.6583 42.0576 26.5526 42.3703 26.3413C42.6916 26.1215 42.8522 25.8341 42.8522 25.4791C42.8522 24.9212 42.1802 24.4732 40.8362 24.1351C39.8134 23.8731 39.0526 23.5476 38.5539 23.1588C38.0552 22.7615 37.8058 22.2163 37.8058 21.5232Z" fill="white"/>
<path d="M47.1134 24.1096V27.8754C47.1134 27.9599 47.0711 28.0022 46.9866 28.0022H45.6426C45.5581 28.0022 45.5158 27.9599 45.5158 27.8754V19.2535C45.5158 19.169 45.5581 19.1267 45.6426 19.1267H46.9866C47.0711 19.1267 47.1134 19.169 47.1134 19.2535V22.6388H50.7904V19.2535C50.7904 19.169 50.8326 19.1267 50.9172 19.1267H52.2612C52.3457 19.1267 52.388 19.169 52.388 19.2535V27.8754C52.388 27.9599 52.3457 28.0022 52.2612 28.0022H50.9172C50.8326 28.0022 50.7904 27.9599 50.7904 27.8754V24.1096H47.1134Z" fill="white"/>
<path d="M1.35789 0.163418L1.12688 0.394212C1.04643 0.477594 1.00179 0.589088 1.00249 0.704897C0.99331 0.75478 0.99331 0.805918 1.00249 0.855801L6.33353 15.7242C6.40109 15.9129 6.58676 16.0329 6.78667 16.0172H6.92883C7.10331 16.0171 7.26227 15.917 7.33754 15.7598L10.3496 9.37742L16.7379 6.36822C16.8954 6.29302 16.9956 6.13421 16.9956 5.95989V5.81787C16.9955 5.631 16.8783 5.4642 16.7024 5.40066L1.81992 0.0391456C1.65483 -0.0129028 1.47451 0.0355973 1.35789 0.163418Z" fill="#487BFF"/>
</g>
<defs>
<clipPath id="clip0_1_3708">
<rect width="60" height="35" fill="white"/>
</clipPath>
</defs>
</svg>
