<svg width="67" height="35" viewBox="0 0 67 35" fill="none" xmlns="http://www.w3.org/2000/svg">
<g clip-path="url(#clip0_1_3700)">
<path d="M45.2899 13.9814H7.33816C3.83688 13.9814 0.998535 16.8198 0.998535 20.3211V28.5173C0.998535 32.0186 3.83688 34.8569 7.33816 34.8569H45.2899C48.7912 34.8569 51.6295 32.0186 51.6295 28.5173V20.3211C51.6295 16.8198 48.7912 13.9814 45.2899 13.9814Z" fill="#6248FF"/>
<path d="M9.59612 20.1082V23.2527L12.4997 20.1082C12.5757 20.0237 12.6518 19.9814 12.7279 19.9814H14.2748C14.3339 19.9814 14.372 20.0026 14.3889 20.0448C14.4058 20.0871 14.3931 20.1251 14.3508 20.159L11.46 23.2527L14.8707 28.6794C14.8961 28.7301 14.9003 28.7724 14.8834 28.8062C14.8665 28.84 14.8327 28.8569 14.7819 28.8569H13.2604C13.1759 28.8569 13.0956 28.7935 13.0195 28.6667L10.3569 24.4319L9.59612 25.2433V28.7301C9.59612 28.8147 9.55386 28.8569 9.46933 28.8569H8.12533C8.0408 28.8569 7.99854 28.8147 7.99854 28.7301V20.1082C7.99854 20.0237 8.0408 19.9814 8.12533 19.9814H9.46933C9.55386 19.9814 9.59612 20.0237 9.59612 20.1082Z" fill="white"/>
<path d="M21.3866 28.7301L20.6259 26.5113H17.4814L16.7207 28.7301C16.6953 28.8147 16.6446 28.8569 16.5685 28.8569H15.1865C15.0935 28.8569 15.047 28.8147 15.047 28.7301C15.047 28.7048 15.0512 28.6794 15.0597 28.6541L18.1788 20.1082C18.2042 20.0237 18.2464 19.9814 18.3056 19.9814H19.8017C19.8609 19.9814 19.9032 20.0237 19.9285 20.1082L23.0476 28.6541C23.0561 28.6794 23.0603 28.7048 23.0603 28.7301C23.0603 28.8147 23.0138 28.8569 22.9208 28.8569H21.5388C21.4627 28.8569 21.412 28.8147 21.3866 28.7301ZM19.0537 21.9467L17.9886 25.0405H20.1187L19.0537 21.9467Z" fill="white"/>
<path d="M23.7981 28.7301V20.1082C23.7981 20.0237 23.8404 19.9814 23.9249 19.9814H25.2689C25.3534 19.9814 25.3957 20.0237 25.3957 20.1082V27.3861H29.7193C29.8038 27.3861 29.8461 27.4284 29.8461 27.5129V28.7301C29.8461 28.8147 29.8038 28.8569 29.7193 28.8569H23.9249C23.8404 28.8569 23.7981 28.8147 23.7981 28.7301Z" fill="white"/>
<path d="M32.5649 24.9264V27.3861H36.7491C36.8336 27.3861 36.8759 27.4284 36.8759 27.5129V28.7301C36.8759 28.8147 36.8336 28.8569 36.7491 28.8569H31.0941C31.0096 28.8569 30.9673 28.8147 30.9673 28.7301V20.1082C30.9673 20.0237 31.0096 19.9814 31.0941 19.9814H36.5589C36.6434 19.9814 36.6857 20.0237 36.6857 20.1082V21.3254C36.6857 21.41 36.6434 21.4522 36.5589 21.4522H32.5649V23.4556H36.1785C36.263 23.4556 36.3053 23.4978 36.3053 23.5824V24.7996C36.3053 24.8841 36.263 24.9264 36.1785 24.9264H32.5649Z" fill="white"/>
<path d="M38.2138 28.8569C38.1293 28.8569 38.087 28.8147 38.087 28.7301V20.1082C38.087 20.0237 38.1293 19.9814 38.2138 19.9814H41.6119C42.3642 19.9814 42.9897 20.197 43.4884 20.6281C43.9956 21.0507 44.2491 21.6171 44.2491 22.3271C44.2491 23.0202 43.9491 23.6035 43.3489 24.0768C44.2027 24.4572 44.6295 25.1715 44.6295 26.2196C44.6295 26.9804 44.3802 27.6101 43.8814 28.1089C43.3912 28.6076 42.7361 28.8569 41.9162 28.8569H38.2138ZM39.6846 24.9264V27.3861H41.764C42.1359 27.3861 42.436 27.2805 42.6642 27.0692C42.8925 26.8494 43.0066 26.5451 43.0066 26.1562C43.0066 25.7843 42.8882 25.4885 42.6516 25.2687C42.4233 25.0405 42.1275 24.9264 41.764 24.9264H39.6846ZM39.6846 21.4522V23.4556H41.6245C41.9288 23.4556 42.174 23.371 42.3599 23.202C42.5543 23.0245 42.6516 22.7709 42.6516 22.4412C42.6516 22.1116 42.5543 21.8664 42.3599 21.7058C42.174 21.5368 41.9288 21.4522 41.6245 21.4522H39.6846Z" fill="white"/>
<path d="M66.8522 0.362289L66.6214 0.131277C66.538 0.0508292 66.4265 0.00618963 66.3107 0.00688598C66.2608 -0.00229533 66.2097 -0.00229533 66.1598 0.00688598L51.2914 5.33792C51.1028 5.40549 50.9827 5.59115 50.9984 5.79106V5.93322C50.9985 6.10771 51.0986 6.26667 51.2559 6.34194L57.6382 9.35397L60.6474 15.7423C60.7226 15.8997 60.8814 16 61.0557 16H61.1978C61.3846 15.9999 61.5514 15.8827 61.615 15.7068L66.9765 0.824312C67.0285 0.659222 66.98 0.478906 66.8522 0.362289Z" fill="#6248FF"/>
</g>
<defs>
<clipPath id="clip0_1_3700">
<rect width="67" height="35" fill="white"/>
</clipPath>
</defs>
</svg>
