<svg width="54" height="35" viewBox="0 0 54 35" fill="none" xmlns="http://www.w3.org/2000/svg">
<g clip-path="url(#clip0_1_3687)">
<path d="M30.5481 13.9814H6.33963C2.83835 13.9814 0 16.8198 0 20.3211V28.5173C0 32.0186 2.83835 34.8569 6.33963 34.8569H30.5481C34.0494 34.8569 36.8877 32.0186 36.8877 28.5173V20.3211C36.8877 16.8198 34.0494 13.9814 30.5481 13.9814Z" fill="#FF4848"/>
<path d="M15.343 20.1082V28.7301C15.343 28.8147 15.3007 28.8569 15.2162 28.8569H13.8722C13.7876 28.8569 13.7454 28.8147 13.7454 28.7301V22.885L11.8688 27.234C11.8266 27.327 11.7674 27.3735 11.6913 27.3735H10.6516C10.5756 27.3735 10.5164 27.327 10.4741 27.234L8.59759 22.885V28.7301C8.59759 28.8147 8.55532 28.8569 8.47079 28.8569H7.12679C7.04226 28.8569 7 28.8147 7 28.7301V20.1082C7 20.0237 7.04226 19.9814 7.12679 19.9814H8.7117C8.81313 19.9814 8.88076 20.0237 8.91457 20.1082L11.1715 25.3194L13.4284 20.1082C13.4622 20.0237 13.5298 19.9814 13.6313 19.9814H15.2162C15.3007 19.9814 15.343 20.0237 15.343 20.1082Z" fill="white"/>
<path d="M18.3174 24.9264V27.3861H22.5016C22.5861 27.3861 22.6284 27.4284 22.6284 27.5129V28.7301C22.6284 28.8147 22.5861 28.8569 22.5016 28.8569H16.8466C16.7621 28.8569 16.7198 28.8147 16.7198 28.7301V20.1082C16.7198 20.0237 16.7621 19.9814 16.8466 19.9814H22.3114C22.3959 19.9814 22.4382 20.0237 22.4382 20.1082V21.3254C22.4382 21.41 22.3959 21.4522 22.3114 21.4522H18.3174V23.4556H21.931C22.0155 23.4556 22.0578 23.4978 22.0578 23.5824V24.7996C22.0578 24.8841 22.0155 24.9264 21.931 24.9264H18.3174Z" fill="white"/>
<path d="M23.8396 28.7301V20.1082C23.8396 20.0237 23.8819 19.9814 23.9664 19.9814H25.3104C25.395 19.9814 25.4372 20.0237 25.4372 20.1082V27.3861H29.7609C29.8454 27.3861 29.8877 27.4284 29.8877 27.5129V28.7301C29.8877 28.8147 29.8454 28.8569 29.7609 28.8569H23.9664C23.8819 28.8569 23.8396 28.8147 23.8396 28.7301Z" fill="white"/>
<path d="M53.8537 0.362289L53.6229 0.131277C53.5395 0.0508292 53.428 0.00618963 53.3122 0.00688598C53.2623 -0.00229533 53.2112 -0.00229533 53.1613 0.00688598L38.2928 5.33792C38.1042 5.40549 37.9842 5.59115 37.9999 5.79106V5.93322C38 6.10771 38.1001 6.26667 38.2573 6.34194L44.6397 9.35397L47.6489 15.7423C47.7241 15.8997 47.8829 16 48.0572 16H48.1992C48.3861 15.9999 48.5529 15.8827 48.6164 15.7068L53.9779 0.824312C54.03 0.659222 53.9815 0.478906 53.8537 0.362289Z" fill="#FF4848"/>
</g>
<defs>
<clipPath id="clip0_1_3687">
<rect width="54" height="35" fill="white"/>
</clipPath>
</defs>
</svg>
